# xmcd
#
# Track frame offsets:
#	150
#	16806
#	32152
#	51286
#	65893
#	80988
#	94241
#	111214
#	129764
#	149490
#
# Disc length: 2191 seconds
#
# Revision: 0
# Processed by: cddbd v1.5.1PL0 Copyright (c) Steve Scherf et al.
# Submitted via: dBpowerAMP V4.0
#
DISCID=8f088d0a
DTITLE=Brandon Jenkins - Down In Flames
DYEAR=1900
DGENRE=Country
TTITLE0=Down In Flames
TTITLE1=The Whole Worlds Gone Crazy
TTITLE2=Red Dirt Town
TTITLE3=After All This Time
TTITLE4=Again
TTITLE5=Out Of Control
TTITLE6=Gypsy Angel
TTITLE7=Finger On The Trigger
TTITLE8=The Maker
TTITLE9=Just Dance
EXTD=
EXTT0=
EXTT1=
EXTT2=
EXTT3=
EXTT4=
EXTT5=
EXTT6=
EXTT7=
EXTT8=
EXTT9=
PLAYORDER=
